<mxfile host="app.diagrams.net" modified="2024-02-26T18:30:02.791Z" agent="Mozilla/5.0 (Windows NT 10.0; Win64; x64) AppleWebKit/537.36 (KHTML, like Gecko) Chrome/120.0.0.0 Safari/537.36 OPR/106.0.0.0" etag="EGRMbU4UxAAT7vT_hYXu" version="23.1.6" type="github" pages="6">
  <diagram name="Page-1" id="JB-6UBuAqqwWC1ZadzKl">
    <mxGraphModel dx="1345" dy="892" grid="1" gridSize="10" guides="1" tooltips="1" connect="1" arrows="1" fold="1" page="1" pageScale="1" pageWidth="850" pageHeight="1100" math="0" shadow="0">
      <root>
        <mxCell id="0" />
        <mxCell id="1" parent="0" />
        <mxCell id="cdhQekbbutvAttsZjkAm-10" value="S&#39;authentifier" style="ellipse;whiteSpace=wrap;html=1;" vertex="1" parent="1">
          <mxGeometry x="580" y="470" width="240" height="80" as="geometry" />
        </mxCell>
        <mxCell id="cdhQekbbutvAttsZjkAm-20" value="&amp;lt;&amp;lt;include&amp;gt;&amp;gt;" style="endArrow=open;endSize=12;dashed=1;html=1;rounded=0;exitX=1;exitY=0.5;exitDx=0;exitDy=0;" edge="1" parent="1" source="cdhQekbbutvAttsZjkAm-6" target="cdhQekbbutvAttsZjkAm-10">
          <mxGeometry width="160" relative="1" as="geometry">
            <mxPoint x="500" y="249.5" as="sourcePoint" />
            <mxPoint x="660" y="249.5" as="targetPoint" />
          </mxGeometry>
        </mxCell>
        <mxCell id="cdhQekbbutvAttsZjkAm-21" value="Utilisateur" style="shape=umlActor;verticalLabelPosition=bottom;verticalAlign=top;html=1;" vertex="1" parent="1">
          <mxGeometry x="50" y="290" width="115" height="230" as="geometry" />
        </mxCell>
        <mxCell id="cdhQekbbutvAttsZjkAm-23" value="Admin" style="shape=umlActor;verticalLabelPosition=bottom;verticalAlign=top;html=1;" vertex="1" parent="1">
          <mxGeometry x="50" y="620" width="115" height="230" as="geometry" />
        </mxCell>
        <mxCell id="cdhQekbbutvAttsZjkAm-36" value="Gérer utilisateur" style="ellipse;whiteSpace=wrap;html=1;" vertex="1" parent="1">
          <mxGeometry x="355" y="543" width="86.25" height="60" as="geometry" />
        </mxCell>
        <mxCell id="cdhQekbbutvAttsZjkAm-37" value="Gérer services" style="ellipse;whiteSpace=wrap;html=1;" vertex="1" parent="1">
          <mxGeometry x="355" y="613" width="86.25" height="60" as="geometry" />
        </mxCell>
        <mxCell id="cdhQekbbutvAttsZjkAm-38" value="Gérer catégorie" style="ellipse;whiteSpace=wrap;html=1;" vertex="1" parent="1">
          <mxGeometry x="355" y="683" width="86.25" height="60" as="geometry" />
        </mxCell>
        <mxCell id="cdhQekbbutvAttsZjkAm-39" value="Gérer réservation" style="ellipse;whiteSpace=wrap;html=1;" vertex="1" parent="1">
          <mxGeometry x="355" y="753" width="86.25" height="60" as="geometry" />
        </mxCell>
        <mxCell id="cdhQekbbutvAttsZjkAm-40" value="Gérer contact" style="ellipse;whiteSpace=wrap;html=1;" vertex="1" parent="1">
          <mxGeometry x="353" y="823" width="86.25" height="60" as="geometry" />
        </mxCell>
        <mxCell id="cdhQekbbutvAttsZjkAm-44" value="" style="swimlane;startSize=0;" vertex="1" parent="1">
          <mxGeometry x="210" y="210" width="620" height="730" as="geometry" />
        </mxCell>
        <mxCell id="cdhQekbbutvAttsZjkAm-28" value="S&#39;incrire" style="ellipse;whiteSpace=wrap;html=1;" vertex="1" parent="cdhQekbbutvAttsZjkAm-44">
          <mxGeometry x="145" y="20" width="86.25" height="60" as="geometry" />
        </mxCell>
        <mxCell id="cdhQekbbutvAttsZjkAm-6" value="Gérer compte" style="ellipse;whiteSpace=wrap;html=1;" vertex="1" parent="cdhQekbbutvAttsZjkAm-44">
          <mxGeometry x="145" y="100" width="86.25" height="60" as="geometry" />
        </mxCell>
        <mxCell id="cdhQekbbutvAttsZjkAm-29" value="Contacter admin" style="ellipse;whiteSpace=wrap;html=1;" vertex="1" parent="cdhQekbbutvAttsZjkAm-44">
          <mxGeometry x="145" y="170" width="86.25" height="60" as="geometry" />
        </mxCell>
        <mxCell id="cdhQekbbutvAttsZjkAm-30" value="Reserver service" style="ellipse;whiteSpace=wrap;html=1;" vertex="1" parent="cdhQekbbutvAttsZjkAm-44">
          <mxGeometry x="145" y="250" width="86.25" height="60" as="geometry" />
        </mxCell>
        <mxCell id="cdhQekbbutvAttsZjkAm-46" value="&amp;lt;&amp;lt;include&amp;gt;&amp;gt;" style="endArrow=open;endSize=12;dashed=1;html=1;rounded=0;exitX=1;exitY=0;exitDx=0;exitDy=0;entryX=0;entryY=0;entryDx=0;entryDy=0;" edge="1" parent="1" source="cdhQekbbutvAttsZjkAm-29" target="cdhQekbbutvAttsZjkAm-10">
          <mxGeometry width="160" relative="1" as="geometry">
            <mxPoint x="451" y="350" as="sourcePoint" />
            <mxPoint x="656" y="484" as="targetPoint" />
          </mxGeometry>
        </mxCell>
        <mxCell id="cdhQekbbutvAttsZjkAm-47" value="&amp;lt;&amp;lt;include&amp;gt;&amp;gt;" style="endArrow=open;endSize=12;dashed=1;html=1;rounded=0;exitX=1.014;exitY=0.324;exitDx=0;exitDy=0;exitPerimeter=0;" edge="1" parent="1" source="cdhQekbbutvAttsZjkAm-30">
          <mxGeometry width="160" relative="1" as="geometry">
            <mxPoint x="439" y="399" as="sourcePoint" />
            <mxPoint x="600" y="490" as="targetPoint" />
          </mxGeometry>
        </mxCell>
        <mxCell id="cdhQekbbutvAttsZjkAm-48" value="&amp;lt;&amp;lt;include&amp;gt;&amp;gt;" style="endArrow=open;endSize=12;dashed=1;html=1;rounded=0;exitX=1;exitY=0.5;exitDx=0;exitDy=0;entryX=0.031;entryY=0.638;entryDx=0;entryDy=0;entryPerimeter=0;" edge="1" parent="1" source="cdhQekbbutvAttsZjkAm-36" target="cdhQekbbutvAttsZjkAm-10">
          <mxGeometry width="160" relative="1" as="geometry">
            <mxPoint x="449" y="409" as="sourcePoint" />
            <mxPoint x="676" y="504" as="targetPoint" />
          </mxGeometry>
        </mxCell>
        <mxCell id="cdhQekbbutvAttsZjkAm-49" value="&amp;lt;&amp;lt;include&amp;gt;&amp;gt;" style="endArrow=open;endSize=12;dashed=1;html=1;rounded=0;exitX=1;exitY=0.5;exitDx=0;exitDy=0;" edge="1" parent="1" source="cdhQekbbutvAttsZjkAm-37">
          <mxGeometry width="160" relative="1" as="geometry">
            <mxPoint x="450" y="480" as="sourcePoint" />
            <mxPoint x="630" y="540" as="targetPoint" />
          </mxGeometry>
        </mxCell>
        <mxCell id="cdhQekbbutvAttsZjkAm-50" value="&amp;lt;&amp;lt;include&amp;gt;&amp;gt;" style="endArrow=open;endSize=12;dashed=1;html=1;rounded=0;exitX=1;exitY=0;exitDx=0;exitDy=0;" edge="1" parent="1" source="cdhQekbbutvAttsZjkAm-38">
          <mxGeometry width="160" relative="1" as="geometry">
            <mxPoint x="451" y="653" as="sourcePoint" />
            <mxPoint x="650" y="540" as="targetPoint" />
          </mxGeometry>
        </mxCell>
        <mxCell id="cdhQekbbutvAttsZjkAm-51" value="&amp;lt;&amp;lt;include&amp;gt;&amp;gt;" style="endArrow=open;endSize=12;dashed=1;html=1;rounded=0;exitX=0.977;exitY=0.312;exitDx=0;exitDy=0;exitPerimeter=0;" edge="1" parent="1" source="cdhQekbbutvAttsZjkAm-39" target="cdhQekbbutvAttsZjkAm-10">
          <mxGeometry width="160" relative="1" as="geometry">
            <mxPoint x="461" y="663" as="sourcePoint" />
            <mxPoint x="650" y="560" as="targetPoint" />
          </mxGeometry>
        </mxCell>
        <mxCell id="cdhQekbbutvAttsZjkAm-52" value="&amp;lt;&amp;lt;include&amp;gt;&amp;gt;" style="endArrow=open;endSize=12;dashed=1;html=1;rounded=0;exitX=1;exitY=0.5;exitDx=0;exitDy=0;entryX=0.5;entryY=1;entryDx=0;entryDy=0;" edge="1" parent="1" source="cdhQekbbutvAttsZjkAm-40" target="cdhQekbbutvAttsZjkAm-10">
          <mxGeometry width="160" relative="1" as="geometry">
            <mxPoint x="471" y="673" as="sourcePoint" />
            <mxPoint x="660" y="570" as="targetPoint" />
          </mxGeometry>
        </mxCell>
        <mxCell id="cdhQekbbutvAttsZjkAm-68" value="" style="endArrow=none;html=1;rounded=0;entryX=0;entryY=0.5;entryDx=0;entryDy=0;" edge="1" parent="1" target="cdhQekbbutvAttsZjkAm-28">
          <mxGeometry width="50" height="50" relative="1" as="geometry">
            <mxPoint x="140" y="420" as="sourcePoint" />
            <mxPoint x="190" y="370" as="targetPoint" />
          </mxGeometry>
        </mxCell>
        <mxCell id="cdhQekbbutvAttsZjkAm-69" value="" style="endArrow=none;html=1;rounded=0;entryX=0;entryY=0.5;entryDx=0;entryDy=0;" edge="1" parent="1" target="cdhQekbbutvAttsZjkAm-6">
          <mxGeometry width="50" height="50" relative="1" as="geometry">
            <mxPoint x="150" y="430" as="sourcePoint" />
            <mxPoint x="365" y="270" as="targetPoint" />
          </mxGeometry>
        </mxCell>
        <mxCell id="cdhQekbbutvAttsZjkAm-70" value="" style="endArrow=none;html=1;rounded=0;" edge="1" parent="1" target="cdhQekbbutvAttsZjkAm-29">
          <mxGeometry width="50" height="50" relative="1" as="geometry">
            <mxPoint x="160" y="440" as="sourcePoint" />
            <mxPoint x="375" y="280" as="targetPoint" />
          </mxGeometry>
        </mxCell>
        <mxCell id="cdhQekbbutvAttsZjkAm-71" value="" style="endArrow=none;html=1;rounded=0;entryX=0;entryY=0.5;entryDx=0;entryDy=0;" edge="1" parent="1" target="cdhQekbbutvAttsZjkAm-30">
          <mxGeometry width="50" height="50" relative="1" as="geometry">
            <mxPoint x="170" y="450" as="sourcePoint" />
            <mxPoint x="385" y="290" as="targetPoint" />
          </mxGeometry>
        </mxCell>
        <mxCell id="cdhQekbbutvAttsZjkAm-72" value="" style="endArrow=none;html=1;rounded=0;entryX=0;entryY=0.5;entryDx=0;entryDy=0;" edge="1" parent="1" target="cdhQekbbutvAttsZjkAm-36">
          <mxGeometry width="50" height="50" relative="1" as="geometry">
            <mxPoint x="160" y="730" as="sourcePoint" />
            <mxPoint x="210" y="680" as="targetPoint" />
          </mxGeometry>
        </mxCell>
        <mxCell id="cdhQekbbutvAttsZjkAm-73" value="" style="endArrow=none;html=1;rounded=0;" edge="1" parent="1">
          <mxGeometry width="50" height="50" relative="1" as="geometry">
            <mxPoint x="170" y="740" as="sourcePoint" />
            <mxPoint x="360" y="640" as="targetPoint" />
          </mxGeometry>
        </mxCell>
        <mxCell id="cdhQekbbutvAttsZjkAm-74" value="" style="endArrow=none;html=1;rounded=0;entryX=0;entryY=0.5;entryDx=0;entryDy=0;" edge="1" parent="1" target="cdhQekbbutvAttsZjkAm-38">
          <mxGeometry width="50" height="50" relative="1" as="geometry">
            <mxPoint x="180" y="750" as="sourcePoint" />
            <mxPoint x="375" y="593" as="targetPoint" />
          </mxGeometry>
        </mxCell>
        <mxCell id="cdhQekbbutvAttsZjkAm-75" value="" style="endArrow=none;html=1;rounded=0;entryX=0;entryY=0;entryDx=0;entryDy=0;" edge="1" parent="1" target="cdhQekbbutvAttsZjkAm-39">
          <mxGeometry width="50" height="50" relative="1" as="geometry">
            <mxPoint x="190" y="760" as="sourcePoint" />
            <mxPoint x="385" y="603" as="targetPoint" />
          </mxGeometry>
        </mxCell>
        <mxCell id="cdhQekbbutvAttsZjkAm-76" value="" style="endArrow=none;html=1;rounded=0;entryX=0;entryY=0.5;entryDx=0;entryDy=0;" edge="1" parent="1" target="cdhQekbbutvAttsZjkAm-40">
          <mxGeometry width="50" height="50" relative="1" as="geometry">
            <mxPoint x="200" y="770" as="sourcePoint" />
            <mxPoint x="395" y="613" as="targetPoint" />
          </mxGeometry>
        </mxCell>
      </root>
    </mxGraphModel>
  </diagram>
  <diagram id="a2_6_-RRYaIkOzgXnYSJ" name="Page-2">
    <mxGraphModel dx="1009" dy="669" grid="1" gridSize="10" guides="1" tooltips="1" connect="1" arrows="1" fold="1" page="1" pageScale="1" pageWidth="850" pageHeight="1100" math="0" shadow="0">
      <root>
        <mxCell id="0" />
        <mxCell id="1" parent="0" />
        <mxCell id="zSenLQ1xjXPOzFem7En7-1" value="client" style="shape=umlActor;verticalLabelPosition=bottom;verticalAlign=top;html=1;outlineConnect=0;" vertex="1" parent="1">
          <mxGeometry x="60" y="180" width="60" height="110" as="geometry" />
        </mxCell>
        <mxCell id="zSenLQ1xjXPOzFem7En7-3" value="gerer compte&amp;nbsp;" style="ellipse;whiteSpace=wrap;html=1;" vertex="1" parent="1">
          <mxGeometry x="240" y="170" width="220" height="80" as="geometry" />
        </mxCell>
        <mxCell id="zSenLQ1xjXPOzFem7En7-4" value="" style="endArrow=none;html=1;rounded=0;exitX=1;exitY=0.3333333333333333;exitDx=0;exitDy=0;exitPerimeter=0;" edge="1" parent="1" source="zSenLQ1xjXPOzFem7En7-1">
          <mxGeometry width="50" height="50" relative="1" as="geometry">
            <mxPoint x="190" y="260" as="sourcePoint" />
            <mxPoint x="240" y="210" as="targetPoint" />
            <Array as="points" />
          </mxGeometry>
        </mxCell>
        <mxCell id="zSenLQ1xjXPOzFem7En7-6" value="S&#39;authentifier&amp;nbsp;" style="ellipse;whiteSpace=wrap;html=1;" vertex="1" parent="1">
          <mxGeometry x="610" y="170" width="220" height="80" as="geometry" />
        </mxCell>
        <mxCell id="zSenLQ1xjXPOzFem7En7-7" value="&amp;lt;&amp;lt;include&amp;gt;&amp;gt;" style="endArrow=open;endSize=12;dashed=1;html=1;rounded=0;" edge="1" parent="1">
          <mxGeometry width="160" relative="1" as="geometry">
            <mxPoint x="460" y="209.5" as="sourcePoint" />
            <mxPoint x="610" y="210" as="targetPoint" />
          </mxGeometry>
        </mxCell>
        <mxCell id="zSenLQ1xjXPOzFem7En7-8" value="Consulter compte&amp;nbsp;" style="ellipse;whiteSpace=wrap;html=1;" vertex="1" parent="1">
          <mxGeometry x="270" y="370" width="180" height="80" as="geometry" />
        </mxCell>
        <mxCell id="zSenLQ1xjXPOzFem7En7-9" value="Extends" style="endArrow=block;endSize=16;endFill=0;html=1;rounded=0;exitX=0.5;exitY=0;exitDx=0;exitDy=0;entryX=0.576;entryY=0.98;entryDx=0;entryDy=0;entryPerimeter=0;" edge="1" parent="1" source="zSenLQ1xjXPOzFem7En7-8" target="zSenLQ1xjXPOzFem7En7-3">
          <mxGeometry width="160" relative="1" as="geometry">
            <mxPoint x="345" y="289" as="sourcePoint" />
            <mxPoint x="505" y="289" as="targetPoint" />
          </mxGeometry>
        </mxCell>
        <mxCell id="zSenLQ1xjXPOzFem7En7-11" value="Modifier compte&amp;nbsp;" style="ellipse;whiteSpace=wrap;html=1;" vertex="1" parent="1">
          <mxGeometry x="80" y="510" width="180" height="80" as="geometry" />
        </mxCell>
        <mxCell id="zSenLQ1xjXPOzFem7En7-12" value="supprimer compte&amp;nbsp;" style="ellipse;whiteSpace=wrap;html=1;" vertex="1" parent="1">
          <mxGeometry x="450" y="520" width="180" height="80" as="geometry" />
        </mxCell>
        <mxCell id="zSenLQ1xjXPOzFem7En7-13" value="Extends" style="endArrow=block;endSize=16;endFill=0;html=1;rounded=0;exitX=0.598;exitY=0;exitDx=0;exitDy=0;exitPerimeter=0;entryX=0.071;entryY=0.76;entryDx=0;entryDy=0;entryPerimeter=0;" edge="1" parent="1" source="zSenLQ1xjXPOzFem7En7-11" target="zSenLQ1xjXPOzFem7En7-8">
          <mxGeometry width="160" relative="1" as="geometry">
            <mxPoint x="290" y="550" as="sourcePoint" />
            <mxPoint x="290" y="430" as="targetPoint" />
          </mxGeometry>
        </mxCell>
        <mxCell id="zSenLQ1xjXPOzFem7En7-14" value="Extends" style="endArrow=block;endSize=16;endFill=0;html=1;rounded=0;exitX=0.436;exitY=0.005;exitDx=0;exitDy=0;exitPerimeter=0;entryX=0.813;entryY=0.91;entryDx=0;entryDy=0;entryPerimeter=0;" edge="1" parent="1" source="zSenLQ1xjXPOzFem7En7-12" target="zSenLQ1xjXPOzFem7En7-8">
          <mxGeometry width="160" relative="1" as="geometry">
            <mxPoint x="330" y="520" as="sourcePoint" />
            <mxPoint x="425" y="441" as="targetPoint" />
          </mxGeometry>
        </mxCell>
      </root>
    </mxGraphModel>
  </diagram>
  <diagram id="DYhV_x8GZivjsZSq8p_J" name="Page-3">
    <mxGraphModel dx="1009" dy="669" grid="1" gridSize="10" guides="1" tooltips="1" connect="1" arrows="1" fold="1" page="1" pageScale="1" pageWidth="850" pageHeight="1100" math="0" shadow="0">
      <root>
        <mxCell id="0" />
        <mxCell id="1" parent="0" />
        <mxCell id="_WEOenM7meubwJMuSbLl-1" value="User" style="shape=umlActor;verticalLabelPosition=bottom;verticalAlign=top;html=1;" vertex="1" parent="1">
          <mxGeometry x="50" y="450" width="100" height="180" as="geometry" />
        </mxCell>
        <mxCell id="_WEOenM7meubwJMuSbLl-2" value="Réserver service" style="ellipse;whiteSpace=wrap;html=1;" vertex="1" parent="1">
          <mxGeometry x="260" y="470" width="120" height="80" as="geometry" />
        </mxCell>
        <mxCell id="BMMccm1iGu39yk3d1u1z-1" value="Consulter service" style="ellipse;whiteSpace=wrap;html=1;" vertex="1" parent="1">
          <mxGeometry x="510" y="550" width="120" height="80" as="geometry" />
        </mxCell>
        <mxCell id="BMMccm1iGu39yk3d1u1z-2" value="Choisir service" style="ellipse;whiteSpace=wrap;html=1;" vertex="1" parent="1">
          <mxGeometry x="550" y="690" width="120" height="80" as="geometry" />
        </mxCell>
        <mxCell id="BMMccm1iGu39yk3d1u1z-5" value="Extends" style="endArrow=block;endSize=16;endFill=0;html=1;rounded=0;entryX=0.95;entryY=0.79;entryDx=0;entryDy=0;entryPerimeter=0;exitX=-0.033;exitY=0.38;exitDx=0;exitDy=0;exitPerimeter=0;" edge="1" parent="1" source="BMMccm1iGu39yk3d1u1z-1" target="_WEOenM7meubwJMuSbLl-2">
          <mxGeometry width="160" relative="1" as="geometry">
            <mxPoint x="345" y="570" as="sourcePoint" />
            <mxPoint x="505" y="570" as="targetPoint" />
          </mxGeometry>
        </mxCell>
        <mxCell id="BMMccm1iGu39yk3d1u1z-7" value="Extends" style="endArrow=block;endSize=16;endFill=0;html=1;rounded=0;entryX=0.727;entryY=0.99;entryDx=0;entryDy=0;entryPerimeter=0;exitX=0.5;exitY=0;exitDx=0;exitDy=0;" edge="1" parent="1" source="BMMccm1iGu39yk3d1u1z-2" target="BMMccm1iGu39yk3d1u1z-1">
          <mxGeometry width="160" relative="1" as="geometry">
            <mxPoint x="676" y="677" as="sourcePoint" />
            <mxPoint x="544" y="630" as="targetPoint" />
          </mxGeometry>
        </mxCell>
        <mxCell id="FtfZDcBLSmBlESvpOTEt-1" value="S&#39;authentifier" style="ellipse;whiteSpace=wrap;html=1;" vertex="1" parent="1">
          <mxGeometry x="650" y="450" width="140" height="70" as="geometry" />
        </mxCell>
        <mxCell id="FtfZDcBLSmBlESvpOTEt-2" value="&amp;lt;&amp;lt;include&amp;gt;&amp;gt;" style="endArrow=open;endSize=12;dashed=1;html=1;rounded=0;exitX=1.003;exitY=0.3;exitDx=0;exitDy=0;exitPerimeter=0;entryX=0;entryY=0.5;entryDx=0;entryDy=0;" edge="1" parent="1" source="_WEOenM7meubwJMuSbLl-2" target="FtfZDcBLSmBlESvpOTEt-1">
          <mxGeometry width="160" relative="1" as="geometry">
            <mxPoint x="450" y="484.5" as="sourcePoint" />
            <mxPoint x="610" y="484.5" as="targetPoint" />
          </mxGeometry>
        </mxCell>
        <mxCell id="DTu2eERwux1Eez3UGqF9-1" value="Choisir la date" style="ellipse;whiteSpace=wrap;html=1;" vertex="1" parent="1">
          <mxGeometry x="250" y="810" width="140" height="70" as="geometry" />
        </mxCell>
        <mxCell id="DTu2eERwux1Eez3UGqF9-2" value="Choisir le temps" style="ellipse;whiteSpace=wrap;html=1;" vertex="1" parent="1">
          <mxGeometry x="420" y="870" width="140" height="70" as="geometry" />
        </mxCell>
        <mxCell id="DTu2eERwux1Eez3UGqF9-3" value="Spécifier l&#39;adresse" style="ellipse;whiteSpace=wrap;html=1;" vertex="1" parent="1">
          <mxGeometry x="630" y="840" width="140" height="70" as="geometry" />
        </mxCell>
        <mxCell id="DTu2eERwux1Eez3UGqF9-4" value="&amp;lt;&amp;lt;include&amp;gt;&amp;gt;" style="endArrow=open;endSize=12;dashed=1;html=1;rounded=0;exitX=0.76;exitY=0;exitDx=0;exitDy=0;exitPerimeter=0;entryX=-0.02;entryY=0.6;entryDx=0;entryDy=0;entryPerimeter=0;" edge="1" parent="1" source="DTu2eERwux1Eez3UGqF9-1" target="BMMccm1iGu39yk3d1u1z-2">
          <mxGeometry width="160" relative="1" as="geometry">
            <mxPoint x="350" y="760" as="sourcePoint" />
            <mxPoint x="510" y="760" as="targetPoint" />
          </mxGeometry>
        </mxCell>
        <mxCell id="DTu2eERwux1Eez3UGqF9-5" value="&amp;lt;&amp;lt;include&amp;gt;&amp;gt;" style="endArrow=open;endSize=12;dashed=1;html=1;rounded=0;exitX=0.5;exitY=0;exitDx=0;exitDy=0;entryX=0.207;entryY=0.95;entryDx=0;entryDy=0;entryPerimeter=0;" edge="1" parent="1" source="DTu2eERwux1Eez3UGqF9-2" target="BMMccm1iGu39yk3d1u1z-2">
          <mxGeometry width="160" relative="1" as="geometry">
            <mxPoint x="440" y="830" as="sourcePoint" />
            <mxPoint x="600" y="830" as="targetPoint" />
          </mxGeometry>
        </mxCell>
        <mxCell id="DTu2eERwux1Eez3UGqF9-6" value="&amp;lt;&amp;lt;include&amp;gt;&amp;gt;" style="endArrow=open;endSize=12;dashed=1;html=1;rounded=0;exitX=0.5;exitY=0;exitDx=0;exitDy=0;entryX=0.833;entryY=0.96;entryDx=0;entryDy=0;entryPerimeter=0;" edge="1" parent="1" source="DTu2eERwux1Eez3UGqF9-3" target="BMMccm1iGu39yk3d1u1z-2">
          <mxGeometry width="160" relative="1" as="geometry">
            <mxPoint x="610" y="770" as="sourcePoint" />
            <mxPoint x="770" y="770" as="targetPoint" />
          </mxGeometry>
        </mxCell>
      </root>
    </mxGraphModel>
  </diagram>
  <diagram id="Abf6h-G617d90sHUx1qR" name="Page-4">
    <mxGraphModel dx="1009" dy="669" grid="1" gridSize="10" guides="1" tooltips="1" connect="1" arrows="1" fold="1" page="1" pageScale="1" pageWidth="850" pageHeight="1100" math="0" shadow="0">
      <root>
        <mxCell id="0" />
        <mxCell id="1" parent="0" />
        <mxCell id="KkUx3BnhXVDkai8BTmxv-1" value="Admin" style="shape=umlActor;verticalLabelPosition=bottom;verticalAlign=top;html=1;" vertex="1" parent="1">
          <mxGeometry x="40" y="50" width="100" height="170" as="geometry" />
        </mxCell>
        <mxCell id="reUVOevNTgEHqLB4HuAQ-1" value="Gerer utilisateur" style="ellipse;whiteSpace=wrap;html=1;" vertex="1" parent="1">
          <mxGeometry x="320" y="119" width="140" height="70" as="geometry" />
        </mxCell>
        <mxCell id="reUVOevNTgEHqLB4HuAQ-2" value="Consulter utilisateur" style="ellipse;whiteSpace=wrap;html=1;" vertex="1" parent="1">
          <mxGeometry x="350" y="320" width="140" height="70" as="geometry" />
        </mxCell>
        <mxCell id="reUVOevNTgEHqLB4HuAQ-3" value="Blocquer utilisateur" style="ellipse;whiteSpace=wrap;html=1;" vertex="1" parent="1">
          <mxGeometry x="150" y="480" width="140" height="70" as="geometry" />
        </mxCell>
        <mxCell id="reUVOevNTgEHqLB4HuAQ-4" value="Supprimer utilisateur" style="ellipse;whiteSpace=wrap;html=1;" vertex="1" parent="1">
          <mxGeometry x="390" y="500" width="140" height="70" as="geometry" />
        </mxCell>
        <mxCell id="reUVOevNTgEHqLB4HuAQ-5" value="Debloquer utilisateur" style="ellipse;whiteSpace=wrap;html=1;" vertex="1" parent="1">
          <mxGeometry x="640" y="480" width="140" height="70" as="geometry" />
        </mxCell>
        <mxCell id="MxXg8OUI7pRC_a8KqJA8-1" value="" style="line;strokeWidth=1;fillColor=none;align=left;verticalAlign=middle;spacingTop=-1;spacingLeft=3;spacingRight=3;rotatable=0;labelPosition=right;points=[];portConstraint=eastwest;strokeColor=inherit;" vertex="1" parent="1">
          <mxGeometry x="140" y="150" width="180" height="8" as="geometry" />
        </mxCell>
        <mxCell id="MxXg8OUI7pRC_a8KqJA8-2" value="Extends" style="endArrow=block;endSize=16;endFill=0;html=1;rounded=0;entryX=0.383;entryY=0.997;entryDx=0;entryDy=0;entryPerimeter=0;exitX=0.32;exitY=-0.017;exitDx=0;exitDy=0;exitPerimeter=0;" edge="1" parent="1" source="reUVOevNTgEHqLB4HuAQ-2" target="reUVOevNTgEHqLB4HuAQ-1">
          <mxGeometry width="160" relative="1" as="geometry">
            <mxPoint x="240" y="310" as="sourcePoint" />
            <mxPoint x="400" y="310" as="targetPoint" />
          </mxGeometry>
        </mxCell>
        <mxCell id="MxXg8OUI7pRC_a8KqJA8-3" value="Extends" style="endArrow=block;endSize=16;endFill=0;html=1;rounded=0;entryX=0.983;entryY=0.657;entryDx=0;entryDy=0;entryPerimeter=0;exitX=0.277;exitY=0.097;exitDx=0;exitDy=0;exitPerimeter=0;" edge="1" parent="1" source="reUVOevNTgEHqLB4HuAQ-5" target="reUVOevNTgEHqLB4HuAQ-2">
          <mxGeometry width="160" relative="1" as="geometry">
            <mxPoint x="641" y="410" as="sourcePoint" />
            <mxPoint x="610" y="366" as="targetPoint" />
          </mxGeometry>
        </mxCell>
        <mxCell id="MxXg8OUI7pRC_a8KqJA8-4" value="Extends" style="endArrow=block;endSize=16;endFill=0;html=1;rounded=0;entryX=1;entryY=1;entryDx=0;entryDy=0;exitX=0.657;exitY=-0.034;exitDx=0;exitDy=0;exitPerimeter=0;" edge="1" parent="1" source="reUVOevNTgEHqLB4HuAQ-4" target="reUVOevNTgEHqLB4HuAQ-2">
          <mxGeometry width="160" relative="1" as="geometry">
            <mxPoint x="651" y="420" as="sourcePoint" />
            <mxPoint x="498" y="376" as="targetPoint" />
          </mxGeometry>
        </mxCell>
        <mxCell id="MxXg8OUI7pRC_a8KqJA8-5" value="Extends" style="endArrow=block;endSize=16;endFill=0;html=1;rounded=0;entryX=0.051;entryY=0.783;entryDx=0;entryDy=0;entryPerimeter=0;exitX=0.823;exitY=0.034;exitDx=0;exitDy=0;exitPerimeter=0;" edge="1" parent="1" source="reUVOevNTgEHqLB4HuAQ-3" target="reUVOevNTgEHqLB4HuAQ-2">
          <mxGeometry width="160" relative="1" as="geometry">
            <mxPoint x="356.5" y="410" as="sourcePoint" />
            <mxPoint x="203.5" y="366" as="targetPoint" />
          </mxGeometry>
        </mxCell>
        <mxCell id="uSS5BECPlZ1dQ4Lm3MY5-1" value="S&#39;authentifier" style="ellipse;whiteSpace=wrap;html=1;" vertex="1" parent="1">
          <mxGeometry x="610" y="110" width="140" height="70" as="geometry" />
        </mxCell>
        <mxCell id="uSS5BECPlZ1dQ4Lm3MY5-2" value="&amp;lt;&amp;lt;include&amp;gt;&amp;gt;" style="endArrow=open;endSize=12;dashed=1;html=1;rounded=0;entryX=0.006;entryY=0.286;entryDx=0;entryDy=0;entryPerimeter=0;" edge="1" parent="1" target="uSS5BECPlZ1dQ4Lm3MY5-1">
          <mxGeometry width="160" relative="1" as="geometry">
            <mxPoint x="460" y="150" as="sourcePoint" />
            <mxPoint x="620" y="150" as="targetPoint" />
            <mxPoint as="offset" />
          </mxGeometry>
        </mxCell>
      </root>
    </mxGraphModel>
  </diagram>
  <diagram id="kYkBtUvQh8lN4UCfxvOe" name="Page-5">
    <mxGraphModel dx="1009" dy="669" grid="1" gridSize="10" guides="1" tooltips="1" connect="1" arrows="1" fold="1" page="1" pageScale="1" pageWidth="850" pageHeight="1100" math="0" shadow="0">
      <root>
        <mxCell id="0" />
        <mxCell id="1" parent="0" />
        <mxCell id="R_725cMfx_TlsO-uv6Uu-1" value="Admin" style="shape=umlActor;verticalLabelPosition=bottom;verticalAlign=top;html=1;" vertex="1" parent="1">
          <mxGeometry x="70" y="170" width="100" height="190" as="geometry" />
        </mxCell>
        <mxCell id="R_725cMfx_TlsO-uv6Uu-3" value="Gerer reservation" style="ellipse;whiteSpace=wrap;html=1;" vertex="1" parent="1">
          <mxGeometry x="355" y="210" width="140" height="70" as="geometry" />
        </mxCell>
        <mxCell id="R_725cMfx_TlsO-uv6Uu-4" value="Consulter reservations" style="ellipse;whiteSpace=wrap;html=1;" vertex="1" parent="1">
          <mxGeometry x="425" y="360" width="140" height="70" as="geometry" />
        </mxCell>
        <mxCell id="R_725cMfx_TlsO-uv6Uu-5" value="Annuler reservation" style="ellipse;whiteSpace=wrap;html=1;" vertex="1" parent="1">
          <mxGeometry x="400" y="570" width="140" height="70" as="geometry" />
        </mxCell>
        <mxCell id="R_725cMfx_TlsO-uv6Uu-6" value="Accepter reservation" style="ellipse;whiteSpace=wrap;html=1;" vertex="1" parent="1">
          <mxGeometry x="630" y="570" width="140" height="70" as="geometry" />
        </mxCell>
        <mxCell id="R_725cMfx_TlsO-uv6Uu-7" value="Modifier reservation" style="ellipse;whiteSpace=wrap;html=1;" vertex="1" parent="1">
          <mxGeometry x="160" y="560" width="140" height="70" as="geometry" />
        </mxCell>
        <mxCell id="R_725cMfx_TlsO-uv6Uu-8" value="Extends" style="endArrow=block;endSize=16;endFill=0;html=1;rounded=0;exitX=0;exitY=0;exitDx=0;exitDy=0;entryX=0.5;entryY=1;entryDx=0;entryDy=0;" edge="1" parent="1" source="R_725cMfx_TlsO-uv6Uu-4" target="R_725cMfx_TlsO-uv6Uu-3">
          <mxGeometry width="160" relative="1" as="geometry">
            <mxPoint x="340" y="450" as="sourcePoint" />
            <mxPoint x="500" y="450" as="targetPoint" />
          </mxGeometry>
        </mxCell>
        <mxCell id="R_725cMfx_TlsO-uv6Uu-9" value="Extends" style="endArrow=block;endSize=16;endFill=0;html=1;rounded=0;exitX=0.206;exitY=0.046;exitDx=0;exitDy=0;exitPerimeter=0;entryX=0.964;entryY=0.714;entryDx=0;entryDy=0;entryPerimeter=0;" edge="1" parent="1" source="R_725cMfx_TlsO-uv6Uu-6" target="R_725cMfx_TlsO-uv6Uu-4">
          <mxGeometry width="160" relative="1" as="geometry">
            <mxPoint x="340" y="450" as="sourcePoint" />
            <mxPoint x="500" y="450" as="targetPoint" />
          </mxGeometry>
        </mxCell>
        <mxCell id="R_725cMfx_TlsO-uv6Uu-10" value="Extends" style="endArrow=block;endSize=16;endFill=0;html=1;rounded=0;exitX=0.58;exitY=-0.034;exitDx=0;exitDy=0;exitPerimeter=0;entryX=0.681;entryY=1.011;entryDx=0;entryDy=0;entryPerimeter=0;" edge="1" parent="1" source="R_725cMfx_TlsO-uv6Uu-5" target="R_725cMfx_TlsO-uv6Uu-4">
          <mxGeometry width="160" relative="1" as="geometry">
            <mxPoint x="340" y="450" as="sourcePoint" />
            <mxPoint x="500" y="450" as="targetPoint" />
          </mxGeometry>
        </mxCell>
        <mxCell id="R_725cMfx_TlsO-uv6Uu-11" value="Extends" style="endArrow=block;endSize=16;endFill=0;html=1;rounded=0;entryX=0.019;entryY=0.714;entryDx=0;entryDy=0;entryPerimeter=0;" edge="1" parent="1" source="R_725cMfx_TlsO-uv6Uu-7" target="R_725cMfx_TlsO-uv6Uu-4">
          <mxGeometry width="160" relative="1" as="geometry">
            <mxPoint x="340" y="450" as="sourcePoint" />
            <mxPoint x="500" y="450" as="targetPoint" />
          </mxGeometry>
        </mxCell>
        <mxCell id="R_725cMfx_TlsO-uv6Uu-12" value="" style="line;strokeWidth=1;fillColor=none;align=left;verticalAlign=middle;spacingTop=-1;spacingLeft=3;spacingRight=3;rotatable=0;labelPosition=right;points=[];portConstraint=eastwest;strokeColor=inherit;" vertex="1" parent="1">
          <mxGeometry x="185" y="250" width="170" height="8" as="geometry" />
        </mxCell>
        <mxCell id="7POMsKSh0zpj5uhTVaRY-1" value="Modifier date de reservation" style="ellipse;whiteSpace=wrap;html=1;" vertex="1" parent="1">
          <mxGeometry x="30" y="760" width="140" height="70" as="geometry" />
        </mxCell>
        <mxCell id="7POMsKSh0zpj5uhTVaRY-2" value="Extends" style="endArrow=block;endSize=16;endFill=0;html=1;rounded=0;exitX=0.651;exitY=-0.04;exitDx=0;exitDy=0;exitPerimeter=0;entryX=0.231;entryY=1;entryDx=0;entryDy=0;entryPerimeter=0;" edge="1" parent="1" source="7POMsKSh0zpj5uhTVaRY-1" target="R_725cMfx_TlsO-uv6Uu-7">
          <mxGeometry width="160" relative="1" as="geometry">
            <mxPoint x="80" y="690" as="sourcePoint" />
            <mxPoint x="240" y="690" as="targetPoint" />
          </mxGeometry>
        </mxCell>
        <mxCell id="7POMsKSh0zpj5uhTVaRY-3" value="S&#39;authentifier" style="ellipse;whiteSpace=wrap;html=1;" vertex="1" parent="1">
          <mxGeometry x="650" y="210" width="140" height="70" as="geometry" />
        </mxCell>
        <mxCell id="7POMsKSh0zpj5uhTVaRY-4" value="&amp;lt;&amp;lt;include&amp;gt;&amp;gt;" style="endArrow=open;endSize=12;dashed=1;html=1;rounded=0;exitX=0.976;exitY=0.286;exitDx=0;exitDy=0;exitPerimeter=0;entryX=-0.011;entryY=0.343;entryDx=0;entryDy=0;entryPerimeter=0;" edge="1" parent="1" source="R_725cMfx_TlsO-uv6Uu-3" target="7POMsKSh0zpj5uhTVaRY-3">
          <mxGeometry width="160" relative="1" as="geometry">
            <mxPoint x="500" y="240" as="sourcePoint" />
            <mxPoint x="650" y="244.5" as="targetPoint" />
          </mxGeometry>
        </mxCell>
        <mxCell id="myhuEcibLG4rXTCgNGqu-1" value="Modifier temps de reservation" style="ellipse;whiteSpace=wrap;html=1;" vertex="1" parent="1">
          <mxGeometry x="240" y="760" width="140" height="70" as="geometry" />
        </mxCell>
        <mxCell id="myhuEcibLG4rXTCgNGqu-2" value="Extends" style="endArrow=block;endSize=16;endFill=0;html=1;rounded=0;exitX=0.5;exitY=0;exitDx=0;exitDy=0;" edge="1" parent="1" source="myhuEcibLG4rXTCgNGqu-1" target="R_725cMfx_TlsO-uv6Uu-7">
          <mxGeometry width="160" relative="1" as="geometry">
            <mxPoint x="270" y="767" as="sourcePoint" />
            <mxPoint x="341" y="640" as="targetPoint" />
          </mxGeometry>
        </mxCell>
      </root>
    </mxGraphModel>
  </diagram>
  <diagram id="n4aXBMaD-iiB7vMEBiVo" name="Page-6">
    <mxGraphModel dx="1009" dy="669" grid="1" gridSize="10" guides="1" tooltips="1" connect="1" arrows="1" fold="1" page="1" pageScale="1" pageWidth="850" pageHeight="1100" math="0" shadow="0">
      <root>
        <mxCell id="0" />
        <mxCell id="1" parent="0" />
        <mxCell id="KfNAW_Cdmslcm1n_wTSR-14" value="" style="whiteSpace=wrap;html=1;aspect=fixed;" vertex="1" parent="1">
          <mxGeometry width="840" height="420" as="geometry" />
        </mxCell>
        <mxCell id="KfNAW_Cdmslcm1n_wTSR-10" value="User" style="swimlane;fontStyle=1;align=center;verticalAlign=top;childLayout=stackLayout;horizontal=1;startSize=26;horizontalStack=0;resizeParent=1;resizeParentMax=0;resizeLast=0;collapsible=1;marginBottom=0;whiteSpace=wrap;html=1;" vertex="1" parent="1">
          <mxGeometry x="40" y="40" width="160" height="280" as="geometry" />
        </mxCell>
        <mxCell id="KfNAW_Cdmslcm1n_wTSR-11" value="&amp;nbsp;id : ObjectID;&lt;br&gt;&amp;nbsp;Nom: string ;&lt;div&gt;&amp;nbsp;Prenom: string ;&lt;/div&gt;&lt;div&gt;&amp;nbsp;email : string ;&amp;nbsp;&lt;/div&gt;&lt;div&gt;&amp;nbsp;phone_number : int ;&lt;/div&gt;&lt;div&gt;&amp;nbsp;adresse : string ;&lt;/div&gt;&lt;div&gt;&amp;nbsp;genre : string ;&lt;/div&gt;&lt;div&gt;&lt;span style=&quot;background-color: initial;&quot;&gt;&amp;nbsp;date_naissance: string ;&lt;/span&gt;&lt;/div&gt;&lt;div&gt;&lt;span style=&quot;background-color: initial;&quot;&gt;&amp;nbsp;password : string ;&lt;/span&gt;&lt;/div&gt;&lt;div&gt;&lt;span style=&quot;background-color: initial;&quot;&gt;&amp;nbsp;image : string ;&lt;/span&gt;&lt;/div&gt;&lt;div&gt;&lt;span style=&quot;background-color: initial;&quot;&gt;&lt;br&gt;&lt;/span&gt;&lt;/div&gt;" style="text;strokeColor=none;fillColor=none;align=left;verticalAlign=top;spacingLeft=4;spacingRight=4;overflow=hidden;rotatable=0;points=[[0,0.5],[1,0.5]];portConstraint=eastwest;whiteSpace=wrap;html=1;" vertex="1" parent="KfNAW_Cdmslcm1n_wTSR-10">
          <mxGeometry y="26" width="160" height="156" as="geometry" />
        </mxCell>
        <mxCell id="KfNAW_Cdmslcm1n_wTSR-12" value="" style="line;strokeWidth=1;fillColor=none;align=left;verticalAlign=middle;spacingTop=-1;spacingLeft=3;spacingRight=3;rotatable=0;labelPosition=right;points=[];portConstraint=eastwest;strokeColor=inherit;" vertex="1" parent="KfNAW_Cdmslcm1n_wTSR-10">
          <mxGeometry y="182" width="160" height="8" as="geometry" />
        </mxCell>
        <mxCell id="KfNAW_Cdmslcm1n_wTSR-13" value="+ connecter ()&lt;br&gt;+ supprimer ()&lt;br&gt;+ modifier()&lt;br&gt;+ envoyer un message()&lt;br&gt;+ repondre a un message()" style="text;strokeColor=none;fillColor=none;align=left;verticalAlign=top;spacingLeft=4;spacingRight=4;overflow=hidden;rotatable=0;points=[[0,0.5],[1,0.5]];portConstraint=eastwest;whiteSpace=wrap;html=1;" vertex="1" parent="KfNAW_Cdmslcm1n_wTSR-10">
          <mxGeometry y="190" width="160" height="90" as="geometry" />
        </mxCell>
      </root>
    </mxGraphModel>
  </diagram>
</mxfile>
